HIERARCHY
ROOT root
{
	OFFSET 0.000000 0.000000 0.000000
	CHANNELS 6 Xposition Yposition Zposition Zrotation Yrotation Xrotation
	JOINT lhip
	{
		OFFSET 0.058581 -0.082280 -0.017664
		CHANNELS 3 Zrotation Yrotation Xrotation
		JOINT lknee
		{
			OFFSET 0.043451 -0.386469 0.008037
			CHANNELS 3 Zrotation Yrotation Xrotation
			JOINT lankle
			{
				OFFSET -0.014790 -0.426874 -0.037428
				CHANNELS 3 Zrotation Yrotation Xrotation
				JOINT ltoe
				{
					OFFSET 0.041054 -0.060286 0.122042
					CHANNELS 3 Zrotation Yrotation Xrotation
					End Site
					{
						OFFSET 0.000000 0.000000 0.000000
					}
				}
			}
		}
	}
	JOINT rhip
	{
		OFFSET -0.060310 -0.090513 -0.013543
		CHANNELS 3 Zrotation Yrotation Xrotation
		JOINT rknee
		{
			OFFSET -0.043257 -0.383688 -0.004843
			CHANNELS 3 Zrotation Yrotation Xrotation
			JOINT rankle
			{
				OFFSET 0.019056 -0.420046 -0.034562
				CHANNELS 3 Zrotation Yrotation Xrotation
				JOINT rtoe
				{
					OFFSET -0.034840 -0.062106 0.130323
					CHANNELS 3 Zrotation Yrotation Xrotation
					End Site
					{
						OFFSET 0.000000 0.000000 0.000000
					}
				}
			}
		}
	}
	JOINT lowerback
	{
		OFFSET 0.004439 0.124404 -0.038385
		CHANNELS 3 Zrotation Yrotation Xrotation
		JOINT upperback
		{
			OFFSET 0.004488 0.137956 0.026820
			CHANNELS 3 Zrotation Yrotation Xrotation
			JOINT chest
			{
				OFFSET -0.002265 0.056032 0.002855
				CHANNELS 3 Zrotation Yrotation Xrotation
				JOINT lowerneck
				{
					OFFSET -0.013390 0.211636 -0.033468
					CHANNELS 3 Zrotation Yrotation Xrotation
					JOINT upperneck
					{
						OFFSET 0.010113 0.088937 0.050410
						CHANNELS 3 Zrotation Yrotation Xrotation
						End Site
						{
							OFFSET 0.000000 0.000000 0.000000
						}
					}
				}
				JOINT lclavicle
				{
					OFFSET 0.071702 0.114000 -0.018898
					CHANNELS 3 Zrotation Yrotation Xrotation
					JOINT lshoulder
					{
						OFFSET 0.122921 0.045205 -0.019046
						CHANNELS 3 Zrotation Yrotation Xrotation
						JOINT lelbow
						{
							OFFSET 0.255332 -0.015649 -0.022946
							CHANNELS 3 Zrotation Yrotation Xrotation
							JOINT lwrist
							{
								OFFSET 0.265709 0.012698 -0.007375
								CHANNELS 3 Zrotation Yrotation Xrotation
								End Site
								{
									OFFSET 0.000000 0.000000 0.000000
								}
							}
						}
					}
				}
				JOINT rclavicle
				{
					OFFSET -0.082954 0.112472 -0.023707
					CHANNELS 3 Zrotation Yrotation Xrotation
					JOINT rshoulder
					{
						OFFSET -0.113228 0.046853 -0.008472
						CHANNELS 3 Zrotation Yrotation Xrotation
						JOINT relbow
						{
							OFFSET -0.260127 -0.014369 -0.031269
							CHANNELS 3 Zrotation Yrotation Xrotation
							JOINT rwrist
							{
								OFFSET -0.269108 0.006794 -0.006027
								CHANNELS 3 Zrotation Yrotation Xrotation
								End Site
								{
									OFFSET 0.000000 0.000000 0.000000
								}
							}
						}
					}
				}
			}
		}
	}
}
MOTION
Frames: 11
Frame Time: 0.033333
-1.668154 0.263394 0.984653 120.072223 -2.225611 89.204718 -0.867635 -8.018141 -0.698959 -2.281315 -16.088477 5.702381 -0.405319 7.112900 -11.924585 0.000000 -0.000000 0.000000 -4.103217 -8.796663 0.850770 -1.635345 -10.572857 14.606756 2.648667 -14.296225 -17.244061 0.000000 -0.000000 0.000000 -0.036115 13.635247 1.409709 -1.749787 11.065852 -1.534460 3.812424 3.085532 4.708285 -0.420580 28.783466 0.505483 -4.991728 22.488640 6.293103 -21.902848 4.719881 -3.342832 -61.209096 -3.593124 9.854342 10.478248 -25.270475 9.203879 5.731983 1.083573 -4.108359 22.290551 2.913337 1.094965 59.193747 9.061138 18.958738 -10.256278 27.460662 8.213010 -11.764023 2.163041 2.461030 
-1.669188 0.263903 0.984092 119.401944 -2.755287 89.439853 -1.561493 -9.319945 -0.372410 -1.868028 -14.887350 4.827102 -1.486423 7.941278 -12.080277 0.000000 -0.000000 0.000000 -4.899518 -8.133564 0.398788 -1.641294 -11.147650 14.883353 4.056082 -13.564941 -17.724687 0.000000 -0.000000 0.000000 0.274336 12.283557 1.473899 -1.716327 7.923798 1.918560 1.718946 5.361188 1.831911 0.560219 31.521650 -1.455464 -4.457443 21.022177 8.771224 -20.141005 5.094175 -5.793256 -61.009075 -0.575898 9.918648 9.641190 -27.416459 9.970925 1.923758 0.477285 -4.347052 23.233710 4.228999 -0.160416 60.047508 7.580767 19.548830 -9.538405 26.079905 6.950127 -18.309992 -0.209603 5.280780 
-1.669936 0.264093 0.984374 118.978894 -2.475707 89.334528 -1.323059 -9.029155 -0.098295 -1.822467 -14.748001 4.650229 -1.571546 7.919155 -12.206215 0.000000 -0.000000 0.000000 -4.597962 -7.996004 0.506176 -1.627290 -10.766390 14.670849 4.182300 -13.657189 -17.626973 0.000000 -0.000000 0.000000 0.509725 11.782376 1.611947 -1.478663 7.199703 2.627711 1.428607 5.368641 1.187059 0.897234 31.913163 -1.604531 -4.496518 20.864819 8.848486 -19.957088 5.021462 -5.750499 -60.690130 -0.561502 10.192049 8.989096 -28.128912 10.733898 1.549115 -0.078841 -4.264615 23.339630 4.131306 -0.503235 60.233194 6.584466 19.726478 -9.596382 24.861791 6.497246 -18.504406 -0.256495 5.708717 
-1.671069 0.264541 0.984400 118.250919 -2.296209 89.374751 -1.199111 -8.658997 -0.089415 -1.810411 -14.485878 4.546606 -1.611800 8.014350 -12.232699 0.000000 -0.000000 0.000000 -4.492891 -8.014422 0.234851 -1.623447 -10.339709 14.701461 4.154594 -13.382224 -17.550136 0.000000 -0.000000 0.000000 0.612654 11.511222 1.690933 -1.348470 6.911215 2.794544 1.511863 5.076105 1.184374 0.456144 31.975886 -1.894525 -4.438631 20.960898 8.307124 -20.533371 4.719639 -5.860766 -59.910106 -0.881648 10.312821 8.361373 -28.827809 11.335422 1.094643 -0.326446 -3.055354 23.810527 3.678564 -0.380832 59.580773 5.703305 19.235620 -9.571306 23.549931 6.209683 -19.010425 -0.572270 5.990164 
-1.671590 0.264863 0.984539 117.727045 -2.201956 89.349104 -1.152416 -8.455580 -0.026471 -1.806348 -14.341584 4.480999 -1.583363 8.164012 -12.256027 0.000000 -0.000000 0.000000 -4.460058 -8.013419 0.126924 -1.590377 -9.966160 14.688493 4.166908 -13.282637 -17.524443 0.000000 -0.000000 0.000000 0.734798 11.340990 1.829567 -1.358672 6.846491 2.788174 1.502261 4.987827 1.275470 0.181725 31.963912 -2.264073 -4.352365 21.078656 8.230344 -20.902146 4.669939 -6.056351 -59.454301 -1.147532 10.328543 8.102876 -29.173709 11.570184 0.930746 -0.464122 -2.137346 24.135135 3.379151 -0.231933 59.163646 5.190576 18.853556 -9.540916 22.617596 5.919800 -19.267140 -0.585832 6.591695 
-1.672312 0.265381 0.984703 116.980970 -2.126272 89.298895 -1.168169 -8.347354 0.081250 -1.799056 -14.199516 4.384141 -1.371978 8.647565 -12.298869 0.000000 -0.000000 0.000000 -4.495546 -7.887078 -0.024943 -1.543912 -9.582326 14.731489 4.222319 -13.111825 -17.505254 0.000000 -0.000000 0.000000 0.830915 11.172574 1.979403 -1.369212 6.840042 2.710026 1.491755 4.871408 1.452375 0.016215 31.920722 -2.530454 -4.355225 21.071607 8.116065 -21.372425 4.602263 -6.246993 -58.999357 -1.535020 10.522642 8.083350 -29.544303 11.263848 0.869305 -0.540452 -1.526680 24.607803 2.963087 -0.090903 58.458260 4.482273 18.469212 -9.496591 21.374074 5.311238 -19.674815 -0.816841 7.033473 
-1.673002 0.265924 0.984826 116.216460 -2.089116 89.282322 -1.244232 -8.364721 0.182333 -1.743485 -13.925261 4.232123 -1.239987 9.177101 -12.279189 0.000000 -0.000000 0.000000 -4.573908 -7.668361 -0.212898 -1.484893 -9.216773 14.788779 4.345686 -13.019541 -17.486995 0.000000 -0.000000 0.000000 0.895709 10.996322 2.070885 -1.399264 6.857501 2.625756 1.432014 4.789184 1.634459 -0.086103 31.963849 -2.719497 -4.345267 21.135105 8.075658 -21.743678 4.621593 -6.358156 -58.657432 -1.975712 10.868189 8.120082 -29.971822 10.526669 1.087744 -0.693565 -1.946676 25.059798 2.503540 0.016433 57.728522 3.736159 18.398917 -9.426660 20.187920 4.960320 -19.872902 -1.014763 7.405637 
-1.673473 0.266570 0.985054 115.491582 -2.026436 89.209557 -1.292231 -8.213366 0.341015 -1.696759 -13.700689 4.068891 -1.226497 9.548292 -12.234886 0.000000 -0.000000 0.000000 -4.633727 -7.573492 -0.321390 -1.423399 -8.774602 14.818124 4.457356 -12.922504 -17.465727 0.000000 -0.000000 0.000000 1.016679 10.845365 2.139173 -1.408651 6.868782 2.642593 1.364895 4.694998 1.842058 -0.259254 31.924223 -2.976604 -4.415712 21.230180 7.960093 -22.152781 4.663028 -6.543203 -58.271930 -2.282772 11.164317 8.073733 -30.412829 10.149147 1.238500 -0.749699 -2.031506 25.551244 2.008124 0.039585 56.904059 2.996806 18.187214 -9.488574 19.323107 4.475701 -20.000038 -1.180303 7.903012 
-1.674029 0.267247 0.985181 114.866963 -1.904032 89.131518 -1.255830 -7.960335 0.403360 -1.675135 -13.407361 4.103572 -1.446211 9.694894 -12.152014 0.000000 -0.000000 0.000000 -4.612638 -7.491657 -0.407107 -1.397545 -8.422803 14.861580 4.447407 -12.762522 -17.409266 0.000000 -0.000000 0.000000 1.133762 10.711923 2.202268 -1.366508 6.762529 2.681950 1.295843 4.710617 1.904117 -0.330988 31.902659 -2.979577 -4.274044 21.200934 7.751024 -22.300242 4.560669 -6.507212 -58.231111 -2.405778 11.213833 8.073828 -30.806192 10.139374 1.382699 -0.516561 -1.409324 25.675142 1.450448 0.564999 56.537279 2.531336 17.315684 -9.875499 19.034469 3.745295 -19.547276 -1.419852 7.867187 
-1.674965 0.267789 0.985324 114.005260 -1.733919 89.120319 -1.158510 -7.526336 0.390037 -1.620983 -12.759951 4.216354 -2.674018 9.565108 -11.984564 0.000000 -0.000000 0.000000 -4.564795 -7.326908 -0.641260 -1.443146 -8.188979 15.067542 4.446219 -12.248099 -17.363567 0.000000 -0.000000 0.000000 1.181832 10.590400 2.077851 -1.234973 6.535203 3.016028 1.198869 4.704386 1.671213 -0.140305 32.237987 -2.597151 -4.195950 21.103262 7.448515 -21.866799 4.341415 -6.274230 -58.851286 -1.928970 11.247394 8.318699 -31.566901 10.808377 0.599422 -0.642643 -1.718995 24.894101 0.925716 0.920059 57.174905 1.854384 16.047517 -10.821180 19.438545 2.409255 -17.154219 -2.544421 5.418059 
-1.675955 0.268358 0.985316 113.316924 -1.642739 89.098333 -1.133622 -7.344240 0.460316 -1.626949 -12.482246 4.168785 -2.558872 9.738373 -12.026979 0.000000 -0.000000 0.000000 -4.610634 -7.188921 -0.820252 -1.343881 -7.784199 15.193100 4.449971 -12.080861 -17.335432 0.000000 -0.000000 0.000000 1.259702 10.417868 2.061979 -1.151555 6.376206 3.131707 1.128038 4.601962 1.727906 -0.143254 32.421962 -2.594967 -4.266937 21.204227 7.366820 -21.822781 4.467026 -6.284511 -59.019320 -1.814701 11.379707 8.031296 -31.802446 11.526290 0.333435 -0.604902 -2.064507 24.660072 0.457651 0.862062 57.178145 1.583222 15.762195 -11.294668 19.676016 1.817540 -16.475530 -3.162565 4.320173 
